<svg xmlns="http://www.w3.org/2000/svg" width="1120" height="560" viewBox="0 0 1120 560" role="img" aria-label="Gündoğan Vize editoryal vize ve seyahat illüstrasyonu"><defs><linearGradient id="bg" x2="1" y2="1"><stop stop-color="#092950"/><stop offset="1" stop-color="#1a74a5"/></linearGradient><linearGradient id="gold" x2="1" y2="1"><stop stop-color="#f7d89c"/><stop offset="1" stop-color="#d49d45"/></linearGradient><filter id="shadow"><feDropShadow dx="0" dy="14" stdDeviation="20" flood-opacity=".35"/></filter></defs><rect width="1120" height="560" rx="35" fill="url(#bg)"/><circle cx="922" cy="110" r="225" fill="#a4e1ee" opacity=".12"/><circle cx="135" cy="500" r="310" fill="#68bde6" opacity=".1"/><path d="M0 415Q260 320 510 414T1120 396V560H0Z" fill="#f2f7fb" opacity=".06"/><g transform="translate(270 75)" filter="url(#shadow)"><rect width="580" height="395" rx="30" fill="#eef7fb"/><path d="M91 85L183 55L252 96L317 58L400 79L472 132L450 201L495 272L413 310L360 277L280 336L217 271L150 307L79 235L111 175Z" fill="#bcdce8" stroke="#4289a7" stroke-width="5"/><path d="M128 200L210 149L287 195L368 145L437 215" stroke="#d6a14c" stroke-width="9" fill="none" stroke-dasharray="17 12"/><circle cx="128" cy="200" r="16" fill="#d6a14c"/><circle cx="437" cy="215" r="16" fill="#d6a14c"/><circle cx="280" cy="178" r="45" fill="#0b406b"/><path d="M252 178H308M280 150V206" stroke="#e8c78a" stroke-width="5"/></g><path d="M70 65H1045" stroke="#a9dbef" stroke-opacity=".2" stroke-width="2"/><path d="M70 500H1045" stroke="#a9dbef" stroke-opacity=".2" stroke-width="2"/></svg>