<svg xmlns="http://www.w3.org/2000/svg" width="1120" height="560" viewBox="0 0 1120 560" role="img" aria-label="Gündoğan Vize editoryal vize ve seyahat illüstrasyonu"><defs><linearGradient id="bg" x2="1" y2="1"><stop stop-color="#092950"/><stop offset="1" stop-color="#1a74a5"/></linearGradient><linearGradient id="gold" x2="1" y2="1"><stop stop-color="#f7d89c"/><stop offset="1" stop-color="#d49d45"/></linearGradient><filter id="shadow"><feDropShadow dx="0" dy="14" stdDeviation="20" flood-opacity=".35"/></filter></defs><rect width="1120" height="560" rx="35" fill="url(#bg)"/><circle cx="922" cy="110" r="225" fill="#a4e1ee" opacity=".12"/><circle cx="135" cy="500" r="310" fill="#68bde6" opacity=".1"/><path d="M0 415Q260 320 510 414T1120 396V560H0Z" fill="#f2f7fb" opacity=".06"/><g transform="translate(307 97) rotate(-6 200 195)" filter="url(#shadow)"><rect x="115" width="177" height="93" rx="23" fill="none" stroke="#e6c080" stroke-width="18"/><rect y="76" width="418" height="341" rx="39" fill="#e5ad60"/><rect x="22" y="99" width="374" height="287" rx="24" fill="#f4c884"/><rect x="180" y="122" width="59" height="242" rx="13" fill="#c58f43"/><circle cx="85" cy="415" r="15" fill="#f9f0dd"/><circle cx="342" cy="415" r="15" fill="#f9f0dd"/></g><path d="M750 185Q820 128 915 187T1050 189" fill="none" stroke="#d8eaf0" stroke-dasharray="14 15" stroke-width="5"/><path d="M948 129L1002 175L929 204L949 178L920 166Z" fill="#e1ba75"/><path d="M70 65H1045" stroke="#a9dbef" stroke-opacity=".2" stroke-width="2"/><path d="M70 500H1045" stroke="#a9dbef" stroke-opacity=".2" stroke-width="2"/></svg>